#Comment line ignore any data following # character 
#Hierarchical Translation and Rotation (.htr) file 
[Header]	
#Header keywords are followed by a single value 
FileType HTR		#Single word string
DataType HTRS		#Translation followed by rotation and scale data
FileVersion 1		#integer
NumSegments 84		#integer
NumFrames 2		#integer
DataFrameRate 30		#integer, data frame rate in this file
EulerRotationOrder ZYX
CalibrationUnits mm
RotationUnits Degrees
GlobalAxisofGravity Y
BoneLengthAxis Y
ScaleFactor 1.00
[SegmentNames&Hierarchy]
#CHILD	PARENT
MASTER GLOBAL
root MASTER
chest root
L_mid_tent01 root
R_mid_tent01 root
spine01 root
Bip01_Neck chest
L_humerus chest
R_humerus chest
weapon_bone chest
Bip01_Head Bip01_Neck
eye_left_bone Bip01_Head
eye_right_bone Bip01_Head
L_forearm L_humerus
L_front_hand L_forearm
L_weapon_bone L_forearm
L_front_hand01_01 L_front_hand
L_front_hand02_01 L_front_hand
L_front_hand03_01 L_front_hand
L_front_hand01_02 L_front_hand01_01
L_front_hand02_02 L_front_hand02_01
L_front_hand03_02 L_front_hand03_01
R_forearm R_humerus
R_front_hand R_forearm
R_weapon_bone R_forearm
R_front_hand01_01 R_front_hand
R_front_hand02_01 R_front_hand
R_front_hand03_01 R_front_hand
R_front_hand01_02 R_front_hand01_01
R_front_hand02_02 R_front_hand02_01
R_front_hand03_02 R_front_hand03_01
null_rope01_connect L_mid_tent01
Rope1_Seg01 null_rope01_connect
Rope1_Seg02 Rope1_Seg01
Rope1_Seg03 Rope1_Seg02
Rope1_Seg04 Rope1_Seg03
Rope1_Seg05 Rope1_Seg04
Rope1_Seg06 Rope1_Seg05
Rope1_Seg07 Rope1_Seg06
Rope1_Seg09 Rope1_Seg07
L_mid_hand01 Rope1_Seg09
L_mid_hand02 Rope1_Seg09
L_mid_hand03 Rope1_Seg09
null_rope02_connect R_mid_tent01
Rope2_Seg01 null_rope02_connect
Rope2_Seg02 Rope2_Seg01
Rope2_Seg03 Rope2_Seg02
Rope2_Seg04 Rope2_Seg03
Rope2_Seg05 Rope2_Seg04
Rope2_Seg06 Rope2_Seg05
Rope2_Seg07 Rope2_Seg06
Rope2_Seg09 Rope2_Seg07
R_mid_hand01 Rope2_Seg09
R_mid_hand02 Rope2_Seg09
R_mid_hand03 Rope2_Seg09
spine02 spine01
spine03 spine02
pelvis spine03
null_rope03_connect pelvis
null_rope04_connect pelvis
Rope3_Seg01 null_rope03_connect
Rope3_Seg02 Rope3_Seg01
Rope3_Seg03 Rope3_Seg02
Rope3_Seg04 Rope3_Seg03
Rope3_Seg05 Rope3_Seg04
Rope3_Seg06 Rope3_Seg05
Rope3_Seg07 Rope3_Seg06
Rope3_Seg08 Rope3_Seg07
Rope3_Seg09 Rope3_Seg08
R_rear_hand01 Rope3_Seg09
R_rear_hand02 Rope3_Seg09
R_rear_hand03 Rope3_Seg09
Rope4_Seg01 null_rope04_connect
Rope4_Seg02 Rope4_Seg01
Rope4_Seg03 Rope4_Seg02
Rope4_Seg04 Rope4_Seg03
Rope4_Seg05 Rope4_Seg04
Rope4_Seg06 Rope4_Seg05
Rope4_Seg07 Rope4_Seg06
Rope4_Seg08 Rope4_Seg07
Rope4_Seg09 Rope4_Seg08
L_rear_hand01 Rope4_Seg09
L_rear_hand02 Rope4_Seg09
L_rear_hand03 Rope4_Seg09
[BasePosition]
#SegmentName Tx, Ty, Tz, Rx, Ry, Rz, BoneLength
MASTER 0.000000 0.000000 0.000000 -90.000000 0.000000 0.000000 10.000000 
root 0.000000 0.000000 0.000000 0.000000 0.000000 0.000000 10.000000 
chest 0.000000 0.000000 0.000000 0.000000 0.000000 0.000000 10.000000 
L_mid_tent01 0.000000 0.000000 0.000000 0.000000 0.000000 0.000000 10.000000 
R_mid_tent01 0.000000 0.000000 0.000000 0.000000 0.000000 0.000000 10.000000 
spine01 0.000000 0.000000 0.000000 0.000000 0.000000 0.000000 10.000000 
Bip01_Neck 0.000000 0.000000 0.000000 0.000000 0.000000 0.000000 10.000000 
L_humerus 0.000000 0.000000 0.000000 0.000000 0.000000 0.000000 10.000000 
R_humerus 0.000000 0.000000 0.000000 0.000000 0.000000 0.000000 10.000000 
weapon_bone 0.000000 0.000000 0.000000 0.000000 0.000000 0.000000 10.000000 
Bip01_Head 0.000000 0.000000 0.000000 0.000000 0.000000 0.000000 10.000000 
eye_left_bone 0.000000 0.000000 0.000000 0.000000 0.000000 0.000000 10.000000 
eye_right_bone 0.000000 0.000000 0.000000 0.000000 0.000000 0.000000 10.000000 
L_forearm 0.000000 0.000000 0.000000 0.000000 0.000000 0.000000 10.000000 
L_front_hand 0.000000 0.000000 0.000000 0.000000 0.000000 0.000000 10.000000 
L_weapon_bone 0.000000 0.000000 0.000000 0.000000 0.000000 0.000000 10.000000 
L_front_hand01_01 0.000000 0.000000 0.000000 0.000000 0.000000 0.000000 10.000000 
L_front_hand02_01 0.000000 0.000000 0.000000 0.000000 0.000000 0.000000 10.000000 
L_front_hand03_01 0.000000 0.000000 0.000000 0.000000 0.000000 0.000000 10.000000 
L_front_hand01_02 0.000000 0.000000 0.000000 0.000000 0.000000 0.000000 10.000000 
L_front_hand02_02 0.000000 0.000000 0.000000 0.000000 0.000000 0.000000 10.000000 
L_front_hand03_02 0.000000 0.000000 0.000000 0.000000 0.000000 0.000000 10.000000 
R_forearm 0.000000 0.000000 0.000000 0.000000 0.000000 0.000000 10.000000 
R_front_hand 0.000000 0.000000 0.000000 0.000000 0.000000 0.000000 10.000000 
R_weapon_bone 0.000000 0.000000 0.000000 0.000000 0.000000 0.000000 10.000000 
R_front_hand01_01 0.000000 0.000000 0.000000 0.000000 0.000000 0.000000 10.000000 
R_front_hand02_01 0.000000 0.000000 0.000000 0.000000 0.000000 0.000000 10.000000 
R_front_hand03_01 0.000000 0.000000 0.000000 0.000000 0.000000 0.000000 10.000000 
R_front_hand01_02 0.000000 0.000000 0.000000 0.000000 0.000000 0.000000 10.000000 
R_front_hand02_02 0.000000 0.000000 0.000000 0.000000 0.000000 0.000000 10.000000 
R_front_hand03_02 0.000000 0.000000 0.000000 0.000000 0.000000 0.000000 10.000000 
null_rope01_connect 0.000000 0.000000 0.000000 0.000000 0.000000 0.000000 10.000000 
Rope1_Seg01 0.000000 0.000000 0.000000 0.000000 0.000000 0.000000 10.000000 
Rope1_Seg02 0.000000 0.000000 0.000000 0.000000 0.000000 0.000000 10.000000 
Rope1_Seg03 0.000000 0.000000 0.000000 0.000000 0.000000 0.000000 10.000000 
Rope1_Seg04 0.000000 0.000000 0.000000 0.000000 0.000000 0.000000 10.000000 
Rope1_Seg05 0.000000 0.000000 0.000000 0.000000 0.000000 0.000000 10.000000 
Rope1_Seg06 0.000000 0.000000 0.000000 0.000000 0.000000 0.000000 10.000000 
Rope1_Seg07 0.000000 0.000000 0.000000 0.000000 0.000000 0.000000 10.000000 
Rope1_Seg09 0.000000 0.000000 0.000000 0.000000 0.000000 0.000000 10.000000 
L_mid_hand01 0.000000 0.000000 0.000000 0.000000 0.000000 0.000000 10.000000 
L_mid_hand02 0.000000 0.000000 0.000000 0.000000 0.000000 0.000000 10.000000 
L_mid_hand03 0.000000 0.000000 0.000000 0.000000 0.000000 0.000000 10.000000 
null_rope02_connect 0.000000 0.000000 0.000000 0.000000 0.000000 0.000000 10.000000 
Rope2_Seg01 0.000000 0.000000 0.000000 0.000000 0.000000 0.000000 10.000000 
Rope2_Seg02 0.000000 0.000000 0.000000 0.000000 0.000000 0.000000 10.000000 
Rope2_Seg03 0.000000 0.000000 0.000000 0.000000 0.000000 0.000000 10.000000 
Rope2_Seg04 0.000000 0.000000 0.000000 0.000000 0.000000 0.000000 10.000000 
Rope2_Seg05 0.000000 0.000000 0.000000 0.000000 0.000000 0.000000 10.000000 
Rope2_Seg06 0.000000 0.000000 0.000000 0.000000 0.000000 0.000000 10.000000 
Rope2_Seg07 0.000000 0.000000 0.000000 0.000000 0.000000 0.000000 10.000000 
Rope2_Seg09 0.000000 0.000000 0.000000 0.000000 0.000000 0.000000 10.000000 
R_mid_hand01 0.000000 0.000000 0.000000 0.000000 0.000000 0.000000 10.000000 
R_mid_hand02 0.000000 0.000000 0.000000 0.000000 0.000000 0.000000 10.000000 
R_mid_hand03 0.000000 0.000000 0.000000 0.000000 0.000000 0.000000 10.000000 
spine02 0.000000 0.000000 0.000000 0.000000 0.000000 0.000000 10.000000 
spine03 0.000000 0.000000 0.000000 0.000000 0.000000 0.000000 10.000000 
pelvis 0.000000 0.000000 0.000000 0.000000 0.000000 0.000000 10.000000 
null_rope03_connect 0.000000 0.000000 0.000000 0.000000 0.000000 0.000000 10.000000 
null_rope04_connect 0.000000 0.000000 0.000000 0.000000 0.000000 0.000000 10.000000 
Rope3_Seg01 0.000000 0.000000 0.000000 0.000000 0.000000 0.000000 10.000000 
Rope3_Seg02 0.000000 0.000000 0.000000 0.000000 0.000000 0.000000 10.000000 
Rope3_Seg03 0.000000 0.000000 0.000000 0.000000 0.000000 0.000000 10.000000 
Rope3_Seg04 0.000000 0.000000 0.000000 0.000000 0.000000 0.000000 10.000000 
Rope3_Seg05 0.000000 0.000000 0.000000 0.000000 0.000000 0.000000 10.000000 
Rope3_Seg06 0.000000 0.000000 0.000000 0.000000 0.000000 0.000000 10.000000 
Rope3_Seg07 0.000000 0.000000 0.000000 0.000000 0.000000 0.000000 10.000000 
Rope3_Seg08 0.000000 0.000000 0.000000 0.000000 0.000000 0.000000 10.000000 
Rope3_Seg09 0.000000 0.000000 0.000000 0.000000 0.000000 0.000000 10.000000 
R_rear_hand01 0.000000 0.000000 0.000000 0.000000 0.000000 0.000000 10.000000 
R_rear_hand02 0.000000 0.000000 0.000000 0.000000 0.000000 0.000000 10.000000 
R_rear_hand03 0.000000 0.000000 0.000000 0.000000 0.000000 0.000000 10.000000 
Rope4_Seg01 0.000000 0.000000 0.000000 0.000000 0.000000 0.000000 10.000000 
Rope4_Seg02 0.000000 0.000000 0.000000 0.000000 0.000000 0.000000 10.000000 
Rope4_Seg03 0.000000 0.000000 0.000000 0.000000 0.000000 0.000000 10.000000 
Rope4_Seg04 0.000000 0.000000 0.000000 0.000000 0.000000 0.000000 10.000000 
Rope4_Seg05 0.000000 0.000000 0.000000 0.000000 0.000000 0.000000 10.000000 
Rope4_Seg06 0.000000 0.000000 0.000000 0.000000 0.000000 0.000000 10.000000 
Rope4_Seg07 0.000000 0.000000 0.000000 0.000000 0.000000 0.000000 10.000000 
Rope4_Seg08 0.000000 0.000000 0.000000 0.000000 0.000000 0.000000 10.000000 
Rope4_Seg09 0.000000 0.000000 0.000000 0.000000 0.000000 0.000000 10.000000 
L_rear_hand01 0.000000 0.000000 0.000000 0.000000 0.000000 0.000000 10.000000 
L_rear_hand02 0.000000 0.000000 0.000000 0.000000 0.000000 0.000000 10.000000 
L_rear_hand03 0.000000 0.000000 0.000000 0.000000 0.000000 0.000000 10.000000 
#Beginning of Data. Separated by tabs
#Fr	Tx	Ty	Tz	Rx	Ry	Rz	SF
[MASTER]
25 -2865.204834 0.000433 0.000000 0.002347 0.000000 89.997704 2865.204834
26 -2998.146484 0.000453 0.000000 0.002347 0.000000 89.997704 2998.146484
[root]
25 -62.822105 16.502380 1471.694092 -103.138062 -29.489151 163.102249 1473.126831
26 -62.822105 16.502380 1500.000000 -89.203926 -27.676626 162.350845 1501.405640
[chest]
25 -84.512650 -34.090519 0.000000 -18.427906 2.930172 -178.392044 91.129311
26 -84.512650 -34.090519 0.000000 -5.125356 2.418449 179.979218 91.129311
[L_mid_tent01]
25 27.299423 22.177427 -249.917740 3.862628 36.229202 81.347610 252.380615
26 27.299500 22.177427 -249.917603 3.862628 36.229202 81.347610 252.380478
[R_mid_tent01]
25 23.228794 24.509907 226.238495 160.432037 -47.061241 87.899765 228.744751
26 23.228794 24.509907 226.238495 160.432037 -47.061249 87.899780 228.744751
[spine01]
25 -0.361383 -0.195265 0.000000 0.829142 1.400018 15.725574 0.410763
26 -0.361383 -0.195265 0.000000 0.829142 1.400018 15.725576 0.410763
[Bip01_Neck]
25 165.484543 71.581718 0.000119 175.896118 1.177290 24.871183 180.302734
26 165.484543 71.581718 0.000119 175.896118 1.177290 24.871187 180.302734
[L_humerus]
25 -13.983130 -135.272980 -120.471481 170.940796 81.564224 -99.189163 181.680161
26 -13.983130 -135.272980 -120.471481 170.940842 81.564316 -99.189255 181.680161
[R_humerus]
25 -13.983309 -135.273102 125.287651 -159.666046 -68.957870 -101.166077 184.909012
26 -13.983309 -135.273102 125.287651 -159.666061 -68.957893 -101.166092 184.909012
[weapon_bone]
25 235.964890 -300.705902 0.000000 0.000000 -89.951546 -128.212341 382.234833
26 235.964890 -300.705902 0.000000 0.000000 -89.951546 -128.212341 382.234833
[Bip01_Head]
25 261.355896 108.959496 -2.864079 2.248029 5.843377 -62.458344 283.173584
26 261.355896 108.959503 -2.864075 2.248029 5.843378 -62.458359 283.173584
[eye_left_bone]
25 -24.626970 125.451866 -64.772606 0.000000 -90.000000 -99.840431 143.318359
26 -24.626970 125.451866 -64.772606 0.000000 -90.000000 -99.840431 143.318359
[eye_right_bone]
25 -24.626970 125.451866 64.327362 0.000000 -89.960434 80.159386 143.117676
26 -24.626970 125.451866 64.327362 0.000000 -90.000000 80.159393 143.117676
[L_forearm]
25 322.776093 0.000000 -0.000119 0.000471 0.002300 -66.859398 322.776093
26 322.776093 0.000000 -0.000119 0.000471 0.002300 -66.859406 322.776093
[L_front_hand]
25 241.149185 -0.042021 -3.300071 -178.667953 -1.835447 -27.422350 241.171753
26 241.149185 -0.042021 -3.300071 -178.667953 -1.835448 -27.422352 241.171753
[L_weapon_bone]
25 156.183838 0.000000 0.000000 0.001660 0.001660 0.001660 156.183838
26 156.183838 0.000000 0.000000 0.001660 0.001660 0.001660 156.183838
[L_front_hand01_01]
25 86.095154 20.947098 -0.655860 -0.121285 -0.584991 49.583012 88.609184
26 86.095154 20.947098 -0.655860 -0.160619 -0.576151 53.404995 88.609184
[L_front_hand02_01]
25 86.935165 -11.437475 24.513514 128.359512 -43.192081 -28.795156 91.046425
26 86.935165 -11.437475 24.513514 130.772217 -46.139130 -32.220337 91.046425
[L_front_hand03_01]
25 86.637497 -14.123976 -20.424902 -129.343369 41.563450 -31.211437 90.126129
26 86.637497 -14.123976 -20.424902 -131.664459 44.472511 -34.610035 90.126129
[L_front_hand01_02]
25 71.020905 -0.000179 0.000030 0.000213 0.002338 -79.602097 71.020905
26 71.020905 -0.000179 0.000030 0.000130 0.002344 -83.647156 71.020905
[L_front_hand02_02]
25 71.020927 -0.000119 0.000060 0.000213 0.002338 -79.602097 71.020927
26 71.020927 -0.000119 0.000060 0.000130 0.002344 -83.647156 71.020927
[L_front_hand03_02]
25 71.020905 -0.000060 0.000060 0.000213 0.002338 -79.602097 71.020905
26 71.020905 -0.000060 0.000060 0.000130 0.002344 -83.647156 71.020905
[R_forearm]
25 322.776428 -0.000060 0.000030 0.199694 -0.075621 -69.903069 322.776428
26 322.776428 -0.000060 0.000030 0.199694 -0.075621 -69.903084 322.776428
[R_front_hand]
25 238.847015 -0.006795 2.210259 -1.531694 0.790216 -51.443054 238.857239
26 238.847015 -0.006795 2.210259 -1.531694 0.790216 -51.443054 238.857239
[R_weapon_bone]
25 155.664093 0.002503 -0.000030 0.003487 0.001180 -90.988930 155.664078
26 155.664093 0.002503 -0.000030 0.003487 0.001180 -90.988930 155.664078
[R_front_hand01_01]
25 87.624611 14.231146 22.918642 -128.451859 -43.306927 29.030180 91.683487
26 87.624611 14.231146 22.918642 -130.870132 -46.251255 32.463497 91.683487
[R_front_hand02_01]
25 89.356956 14.367283 -19.491137 129.628052 41.909271 31.855764 92.579636
26 89.356956 14.367283 -19.491137 131.986176 44.802925 35.292278 92.579636
[R_front_hand03_01]
25 87.286232 -22.307278 -0.143439 -0.038288 -0.452514 -49.970829 90.091743
26 87.286232 -22.307278 -0.143439 -0.007706 -0.451238 -53.793499 90.091743
[R_front_hand01_02]
25 71.020905 0.000060 0.000119 0.002338 0.000213 79.599968 71.020905
26 71.020905 0.000060 0.000119 0.002344 0.000130 83.651611 71.020905
[R_front_hand02_02]
25 71.020844 -0.000030 -0.000119 0.002338 0.000213 79.599968 71.020836
26 71.020844 -0.000030 -0.000119 0.002344 0.000130 83.651611 71.020836
[R_front_hand03_02]
25 71.020905 0.000000 0.000030 0.002338 0.000213 79.599968 71.020905
26 71.020905 0.000000 0.000030 0.002344 0.000130 83.651611 71.020905
[null_rope01_connect]
25 328.732483 0.000000 -0.000238 -130.382294 -28.686665 164.846115 328.732483
26 328.732483 0.000000 -0.000238 -124.178619 -40.820202 157.386871 328.732483
[Rope1_Seg01]
25 0.000000 0.000000 0.000000 -41.518471 47.579926 125.660538 0.000000
26 0.000000 0.000000 0.000000 -52.235420 48.616108 113.158249 0.000000
[Rope1_Seg02]
25 139.999863 -0.000179 0.000000 1.443461 11.377405 -17.188166 139.999863
26 139.999863 -0.000179 0.000000 0.338110 5.355236 -6.903437 139.999863
[Rope1_Seg03]
25 139.999924 0.000060 -0.000060 4.126012 8.817149 -13.107416 139.999924
26 139.999924 0.000060 -0.000060 -0.430297 8.520813 -9.916858 139.999924
[Rope1_Seg04]
25 139.999924 -0.000060 -0.000119 70.991783 6.442730 -18.369909 139.999924
26 139.999924 -0.000060 -0.000119 0.708076 13.615577 -16.140930 139.999924
[Rope1_Seg05]
25 139.999832 0.000119 -0.000060 54.131550 -10.235831 -7.149437 139.999832
26 139.999832 0.000119 -0.000060 132.188141 1.938832 -18.374327 139.999832
[Rope1_Seg06]
25 139.999954 0.000119 -0.000060 8.169395 -5.603569 1.730965 139.999954
26 139.999954 0.000119 -0.000060 2.532515 -5.497838 4.571458 139.999954
[Rope1_Seg07]
25 139.999985 0.000060 0.000000 3.159830 -3.247564 1.540525 139.999985
26 139.999985 0.000060 0.000000 1.677926 -3.093915 2.247432 139.999985
[Rope1_Seg09]
25 121.602913 0.000119 -0.000089 -89.793175 -1.359789 0.847147 121.602913
26 121.602913 0.000119 -0.000089 -89.793175 -1.359789 0.847147 121.602913
[L_mid_hand01]
25 103.859421 1.038730 8.195221 105.620987 -22.988335 -6.761933 104.187431
26 103.859421 1.038730 8.195221 105.621002 -22.988338 -6.761934 104.187431
[L_mid_hand02]
25 105.572853 -4.139662 -10.864139 -139.491974 20.327143 -21.528740 106.211075
26 105.572853 -4.139662 -10.864139 -139.491974 20.327143 -21.528740 106.211075
[L_mid_hand03]
25 104.641464 17.579376 -3.913581 -17.354424 7.254999 25.905664 106.179977
26 104.641464 17.579376 -3.913581 -17.354425 7.255000 25.905668 106.179977
[null_rope02_connect]
25 328.732849 0.000179 -0.000119 -130.559631 65.489639 9.559797 328.732849
26 328.732849 0.000179 -0.000119 -136.643875 52.737003 0.294910 328.732849
[Rope2_Seg01]
25 0.000090 0.000113 0.000005 76.791588 70.336327 13.739319 0.000144
26 0.000095 0.000114 0.000000 90.024048 45.577469 31.670122 0.000149
[Rope2_Seg02]
25 139.999741 -0.000060 -0.000119 -2.111017 16.239498 6.404691 139.999756
26 139.999741 -0.000060 -0.000119 -0.273387 5.815414 1.800313 139.999756
[Rope2_Seg03]
25 140.000107 0.000030 0.000000 -4.051243 13.331765 4.816208 140.000107
26 140.000107 0.000030 0.000000 -0.671951 6.786358 1.591891 140.000107
[Rope2_Seg04]
25 139.999802 0.000000 -0.000060 -14.627791 22.222015 16.607750 139.999802
26 139.999802 0.000000 -0.000060 -2.965163 14.589095 4.815989 139.999802
[Rope2_Seg05]
25 139.999985 -0.000060 0.000119 -10.441089 7.502894 10.731090 139.999985
26 139.999985 -0.000060 0.000119 -9.886670 19.946171 13.102181 139.999985
[Rope2_Seg06]
25 139.999893 -0.000030 -0.000119 -4.586878 2.286065 4.832544 139.999893
26 139.999893 -0.000030 -0.000119 -4.916085 5.269848 5.059689 139.999893
[Rope2_Seg07]
25 139.999893 0.000060 -0.000060 -2.706326 1.105170 2.929415 139.999893
26 139.999893 0.000060 -0.000060 -2.784672 2.463866 2.752675 139.999893
[Rope2_Seg09]
25 121.338966 0.000089 -0.000060 33.793236 -1.359788 -0.847141 121.338966
26 121.338966 0.000089 -0.000060 33.793236 -1.359788 -0.847141 121.338966
[R_mid_hand01]
25 104.680779 11.144459 -10.335981 -44.070736 19.764444 21.986286 105.778534
26 104.680779 11.144459 -10.335981 -44.070736 19.764446 21.986286 105.778534
[R_mid_hand02]
25 104.070427 2.443552 8.231699 74.148849 -24.768806 7.320621 104.424065
26 104.070427 2.443552 8.231699 74.148865 -24.768812 7.320621 104.424065
[R_mid_hand03]
25 106.028137 -11.221827 -5.996406 -166.566208 8.416404 -28.789036 106.788818
26 106.028137 -11.221827 -5.996406 -166.566223 8.416407 -28.789045 106.788818
[spine02]
25 129.756927 0.001550 0.000119 -0.245322 -4.052060 -4.355547 129.756927
26 129.756927 0.001550 0.000119 -0.245322 -4.052061 -4.355548 129.756927
[spine03]
25 78.613884 0.087128 -4.898686 0.369659 4.260734 -4.885720 78.766411
26 78.613892 0.087128 -4.898681 0.369659 4.260734 -4.885720 78.766418
[pelvis]
25 169.435242 0.051022 0.000000 -0.010007 -0.191417 -1.897554 169.435257
26 169.435242 0.051022 0.000000 -0.010007 -0.191417 -1.897554 169.435257
[null_rope03_connect]
25 -1.257226 -2.466202 137.391083 -112.740791 -63.764767 -133.633408 137.418976
26 -1.257226 -2.466202 137.391083 -82.921257 -71.548660 -163.630859 137.418976
[null_rope04_connect]
25 -1.259640 -2.480268 -137.844437 -112.740791 -63.764767 -133.633408 137.872513
26 -1.259640 -2.480268 -137.844437 -82.921257 -71.548660 -163.630859 137.872513
[Rope3_Seg01]
25 0.000000 0.000000 0.000000 16.964310 -33.235008 -72.776093 0.000000
26 0.000000 0.000000 0.000000 21.640251 -33.997047 -81.483032 0.000000
[Rope3_Seg02]
25 139.999924 -0.000119 0.000060 -6.039387 -4.830664 37.820522 139.999924
26 139.999924 -0.000119 0.000060 -8.770021 -22.578842 44.494392 139.999924
[Rope3_Seg03]
25 139.999924 -0.000119 0.000119 -43.083221 -14.188355 51.368469 139.999924
26 139.999924 -0.000119 0.000119 -28.646088 -25.784431 46.749531 139.999924
[Rope3_Seg04]
25 139.999924 0.000119 0.000000 -42.760742 -18.234629 30.364849 139.999924
26 139.999924 0.000119 0.000000 -23.582899 -16.336788 29.902557 139.999924
[Rope3_Seg05]
25 139.999924 -0.000238 0.000060 -22.215666 -19.869680 9.937013 139.999924
26 139.999924 -0.000238 0.000060 -17.051445 -15.067351 14.948195 139.999924
[Rope3_Seg06]
25 139.999893 -0.000119 -0.000060 -4.126601 -6.987620 0.080209 139.999893
26 139.999893 -0.000119 -0.000060 -4.597777 -6.278921 2.985603 139.999893
[Rope3_Seg07]
25 139.999771 0.000060 -0.000119 -1.692344 -3.999265 -0.241141 139.999771
26 139.999771 0.000060 -0.000119 -2.208856 -3.785308 1.445655 139.999771
[Rope3_Seg08]
25 139.999985 -0.000060 0.000000 -0.592868 -2.254808 -0.204320 139.999985
26 139.999985 -0.000060 0.000000 -0.932567 -2.183496 0.741659 139.999985
[Rope3_Seg09]
25 90.185997 -0.000179 -0.000060 89.793228 -1.359877 -0.847183 90.185997
26 90.185997 -0.000179 -0.000060 89.793228 -1.359877 -0.847183 90.185997
[R_rear_hand01]
25 103.366196 -6.073594 -10.757982 -160.090088 14.865479 -24.717995 104.101845
26 103.366196 -6.073594 -10.757982 -160.090088 14.865480 -24.717997 104.101845
[R_rear_hand02]
25 100.509819 12.039542 -7.992327 -35.711582 16.148796 24.170401 101.543350
26 100.509819 12.039542 -7.992327 -35.711582 16.148800 24.170403 101.543350
[R_rear_hand03]
25 101.539970 5.215704 5.435467 83.699936 -25.497597 6.583542 101.819031
26 101.539970 5.215704 5.435467 83.699944 -25.497602 6.583543 101.819031
[Rope4_Seg01]
25 -0.000029 0.000000 -0.000146 -90.114891 -25.907784 -128.892746 0.000149
26 -0.000029 0.000000 -0.000153 -96.751259 -11.868475 -121.509438 0.000155
[Rope4_Seg02]
25 139.999985 0.000060 0.000119 0.980743 23.068865 -55.851658 139.999985
26 139.999985 0.000060 0.000119 1.877335 45.711868 -60.561008 139.999985
[Rope4_Seg03]
25 139.999924 0.000000 -0.000238 -2.305781 9.261725 -44.755272 139.999924
26 139.999924 0.000000 -0.000238 10.446796 11.132586 -38.856274 139.999924
[Rope4_Seg04]
25 139.999985 0.000000 0.000119 -3.394307 5.658884 -21.083492 139.999985
26 139.999985 0.000000 0.000119 3.245898 6.736908 -23.199158 139.999985
[Rope4_Seg05]
25 139.999802 -0.000060 -0.000119 -6.955188 8.808686 -26.906065 139.999802
26 139.999802 -0.000060 -0.000119 0.123919 7.955768 -32.691017 139.999802
[Rope4_Seg06]
25 139.999924 0.000000 0.000060 -2.992754 5.012252 -11.747082 139.999924
26 139.999924 0.000000 0.000060 -0.557519 2.417843 -12.764647 139.999924
[Rope4_Seg07]
25 139.999802 0.000000 0.000000 -1.397831 2.875515 -6.012851 139.999802
26 139.999802 0.000000 0.000000 -0.422753 1.211454 -6.401304 139.999802
[Rope4_Seg08]
25 139.999924 0.000000 0.000119 -2.257865 1.659168 -3.281765 139.999924
26 139.999924 0.000000 0.000119 -1.815043 0.679273 -3.457255 139.999924
[Rope4_Seg09]
25 90.185791 0.000060 0.000060 -135.617828 2.228885 0.850567 90.185791
26 90.185791 0.000060 0.000060 -135.617828 2.228885 0.850567 90.185791
[L_rear_hand01]
25 101.696655 -8.392275 -7.654577 -36.242058 -14.765300 157.809067 102.329041
26 101.696655 -8.392275 -7.654577 -36.242065 -14.765306 157.809082 102.329041
[L_rear_hand02]
25 102.726799 -1.568258 5.773216 83.814362 23.151863 173.698151 102.900848
26 102.726799 -1.568258 5.773216 83.814369 23.151869 173.698151 102.900848
[L_rear_hand03]
25 104.552910 9.721220 -10.420293 -159.518845 -14.052428 -157.569275 105.519653
26 104.552910 9.721220 -10.420293 -159.518845 -14.052429 -157.569290 105.519653
